<svg id="그룹_37050" data-name="그룹 37050" xmlns="http://www.w3.org/2000/svg" xmlns:xlink="http://www.w3.org/1999/xlink" width="30" height="30" viewBox="0 0 30 30">
  <defs>
    <clipPath id="clip-path">
      <rect id="사각형_14670" data-name="사각형 14670" width="30" height="30" fill="none"/>
    </clipPath>
  </defs>
  <g id="그룹_37050-2" data-name="그룹 37050" clip-path="url(#clip-path)">
    <rect id="사각형_14669" data-name="사각형 14669" width="30" height="30" fill="none"/>
  </g>
  <g id="사각형_14895" data-name="사각형 14895" transform="translate(5 5)" fill="#fff" stroke="#000" stroke-width="1.2">
    <rect width="9" height="9" rx="2" stroke="none"/>
    <rect x="0.6" y="0.6" width="7.8" height="7.8" rx="1.4" fill="none"/>
  </g>
  <g id="사각형_14896" data-name="사각형 14896" transform="translate(16 5)" fill="#fff" stroke="#000" stroke-width="1.2">
    <rect width="9" height="9" rx="2" stroke="none"/>
    <rect x="0.6" y="0.6" width="7.8" height="7.8" rx="1.4" fill="none"/>
  </g>
  <g id="패스_8390" data-name="패스 8390" transform="translate(16 16)" fill="#fff">
    <path d="M 7 8.399999618530273 L 2 8.399999618530273 C 1.228039979934692 8.399999618530273 0.6000000238418579 7.771959781646729 0.6000000238418579 7 L 0.6000000238418579 2 C 0.6000000238418579 1.228039979934692 1.228039979934692 0.6000000238418579 2 0.6000000238418579 L 7 0.6000000238418579 C 7.771959781646729 0.6000000238418579 8.399999618530273 1.228039979934692 8.399999618530273 2 L 8.399999618530273 7 C 8.399999618530273 7.771959781646729 7.771959781646729 8.399999618530273 7 8.399999618530273 Z" stroke="none"/>
    <path d="M 2 1.199999809265137 C 1.558879852294922 1.199999809265137 1.199999809265137 1.558879852294922 1.199999809265137 2 L 1.199999809265137 7 C 1.199999809265137 7.441120147705078 1.558879852294922 7.800000190734863 2 7.800000190734863 L 7 7.800000190734863 C 7.441120147705078 7.800000190734863 7.800000190734863 7.441120147705078 7.800000190734863 7 L 7.800000190734863 2 C 7.800000190734863 1.558879852294922 7.441120147705078 1.199999809265137 7 1.199999809265137 L 2 1.199999809265137 M 2 0 L 7 0 C 8.104570388793945 0 9 0.8954296112060547 9 2 L 9 7 C 9 8.104570388793945 8.104570388793945 9 7 9 L 2 9 C 0.8954296112060547 9 0 8.104570388793945 0 7 L 0 2 C 0 0.8954296112060547 0.8954296112060547 0 2 0 Z" stroke="none" fill="#000"/>
  </g>
  <g id="사각형_14898" data-name="사각형 14898" transform="translate(5 16)" fill="#fff" stroke="#000" stroke-width="1.2">
    <rect width="9" height="9" rx="2" stroke="none"/>
    <rect x="0.6" y="0.6" width="7.8" height="7.8" rx="1.4" fill="none"/>
  </g>
</svg>
