<svg xmlns="http://www.w3.org/2000/svg" width="14" height="14" viewBox="0 0 14 14">
  <g id="그룹_36944" data-name="그룹 36944" transform="translate(-77.294 -171.927)">
    <rect id="사각형_3106" data-name="사각형 3106" width="14" height="14" transform="translate(77.294 171.927)" fill="none"/>
    <g id="그룹_36941" data-name="그룹 36941" transform="translate(78.752 173.385)">
      <g id="그룹_36942" data-name="그룹 36942" transform="translate(0 0)">
        <g id="패스_8039" data-name="패스 8039" transform="translate(-19.102 -6.889)" fill="none" stroke-linecap="round" stroke-linejoin="round">
          <path d="M30.185,12.43a5.542,5.542,0,1,0-5.541,5.541A5.541,5.541,0,0,0,30.185,12.43Z" stroke="none"/>
          <path d="M 24.64372253417969 16.97177886962891 C 27.14785194396973 16.97177886962891 29.18511199951172 14.93451976776123 29.18511199951172 12.43038940429688 C 29.18511199951172 9.92625904083252 27.14785194396973 7.888999462127686 24.64372253417969 7.888999462127686 C 22.13940238952637 7.888999462127686 20.10199356079102 9.92625904083252 20.10199356079102 12.43038940429688 C 20.10199356079102 14.93451976776123 22.13940238952637 16.97177886962891 24.64372253417969 16.97177886962891 M 24.64372253417969 17.97177886962891 C 21.58322334289551 17.97177886962891 19.10199356079102 15.49088954925537 19.10199356079102 12.43038940429688 C 19.10199356079102 9.369889259338379 21.58322334289551 6.888999462127686 24.64372253417969 6.888999462127686 C 27.70423316955566 6.888999462127686 30.18511199951172 9.369889259338379 30.18511199951172 12.43038940429688 C 30.18511199951172 15.49088954925537 27.70423316955566 17.97177886962891 24.64372253417969 17.97177886962891 Z" stroke="none" fill="#fff"/>
        </g>
        <path id="패스_8040" data-name="패스 8040" d="M17.547,19.3v2.988l2.244,1.137" transform="translate(-12.005 -16.541)" fill="none" stroke="#fff" stroke-linecap="round" stroke-linejoin="round" stroke-width="1"/>
      </g>
    </g>
  </g>
</svg>
